# xmcd
#
# Track frame offsets:
#	150
#	14562
#	28506
#	42275
#	59718
#	80323
#	96802
#	109439
#	123788
#	139897
#	153523
#	169647
#	189786
#
# Disc length: 2768 seconds
#
# Revision: 1
# Processed by: cddbd v1.5.2PL0 Copyright (c) Steve Scherf et al.
# Submitted via: audiograbber 1.83.01
#
DISCID=a70ace0d
DTITLE=Alabama - Forever Alabama - Collector's Edition [CD 3)
DYEAR=2007
DGENRE=Country
TTITLE0=Song Of The South
TTITLE1=Down On The River
TTITLE2=High Cotton
TTITLE3=''Ole'' Baugh Road
TTITLE4=The Borderline
TTITLE5=She Can
TTITLE6=Barefootin'
TTITLE7=Southern Star
TTITLE8=If I Had You
TTITLE9=I'm Still Dreamin'
TTITLE10=Pete's Music City
TTITLE11=I Showed Her
TTITLE12=Dixie Fire
EXTD=
EXTT0=
EXTT1=
EXTT2=
EXTT3=
EXTT4=
EXTT5=
EXTT6=
EXTT7=
EXTT8=
EXTT9=
EXTT10=
EXTT11=
EXTT12=
PLAYORDER=
